<svg width="20" height="20" viewBox="0 0 20 20" fill="none" xmlns="http://www.w3.org/2000/svg">
<path d="M0.133839 13.271L2.13384 16.731C2.26662 16.9605 2.48511 17.1279 2.74127 17.1963C2.99743 17.2648 3.27028 17.2287 3.49984 17.096L4.89584 16.29C5.47584 16.747 6.11684 17.122 6.79084 17.402V19C6.79084 19.2652 6.89619 19.5196 7.08373 19.7071C7.27127 19.8946 7.52562 20 7.79084 20H11.7908C12.0561 20 12.3104 19.8946 12.4979 19.7071C12.6855 19.5196 12.7908 19.2652 12.7908 19V17.402C13.4701 17.1192 14.1077 16.7451 14.6858 16.29L16.0818 17.096C16.5588 17.371 17.1728 17.206 17.4478 16.731L19.4478 13.271C19.5795 13.0412 19.6149 12.7687 19.5466 12.5129C19.4782 12.257 19.3115 12.0385 19.0828 11.905L17.7108 11.112C17.818 10.3745 17.8174 9.62531 17.7088 8.888L19.0808 8.095C19.5568 7.82 19.7218 7.205 19.4458 6.729L17.4458 3.269C17.3131 3.0395 17.0946 2.87212 16.8384 2.80367C16.5823 2.73523 16.3094 2.77131 16.0798 2.904L14.6838 3.71C14.1064 3.25438 13.4691 2.88022 12.7898 2.598V1C12.7898 0.734784 12.6845 0.48043 12.4969 0.292893C12.3094 0.105357 12.0551 0 11.7898 0H7.78984C7.52462 0 7.27027 0.105357 7.08273 0.292893C6.8952 0.48043 6.78984 0.734784 6.78984 1V2.598C6.11056 2.88081 5.47302 3.25492 4.89484 3.71L3.49984 2.904C3.38621 2.83817 3.26071 2.79539 3.13053 2.7781C3.00035 2.76082 2.86803 2.76937 2.74116 2.80327C2.61429 2.83717 2.49534 2.89576 2.39113 2.97567C2.28692 3.05559 2.19949 3.15526 2.13384 3.269L0.133839 6.729C0.00222652 6.9588 -0.033262 7.2313 0.0351014 7.48715C0.103465 7.74299 0.270143 7.96147 0.498839 8.095L1.87084 8.888C1.76297 9.62541 1.76297 10.3746 1.87084 11.112L0.498839 11.905C0.0228387 12.18 -0.142161 12.795 0.133839 13.271ZM9.78984 6C11.9958 6 13.7898 7.794 13.7898 10C13.7898 12.206 11.9958 14 9.78984 14C7.58384 14 5.78984 12.206 5.78984 10C5.78984 7.794 7.58384 6 9.78984 6Z" fill="white"/>
</svg>
