<svg width="40" height="28" viewBox="0 0 40 28" fill="none" xmlns="http://www.w3.org/2000/svg">
<path d="M33.8521 9.40308C32.9982 4.10769 27.2402 0 20.2846 0C14.8998 0 10.2222 2.47846 8.08669 6.38461C3.88983 7.37231 0.746094 10.4923 0.746094 13.8462C0.746094 18.0877 5.12857 21.5385 10.5153 21.5385H12.4692V26.1538H16.3769V21.5385H24.1922V26.1538H28.0999V21.5385H32.0076C36.3178 21.5385 39.823 18.7785 39.823 15.3846C39.82 14.0056 39.2303 12.667 38.148 11.5828C37.0657 10.4986 35.5532 9.73116 33.8521 9.40308Z" fill="white"/>
<path d="M18.3301 23.0769H22.2378V27.6923H18.3301V23.0769Z" fill="white"/>
</svg>
