<svg width="50" height="50" viewBox="0 0 50 50" fill="none" xmlns="http://www.w3.org/2000/svg">
<path fill-rule="evenodd" clip-rule="evenodd" d="M46.421 38.1388C48.6925 34.3485 49.9993 29.9064 49.9993 25.157C49.9993 14.3158 43.1898 5.07567 33.6416 1.53447L32.9204 1.48517C30.1116 6.3398 29.3303 9.25194 28.96 14.6916C36.268 20.442 39.8407 26.1359 45.668 38.8618L46.421 38.1388Z" fill="url(#paint0_linear_13_8)"/>
<path fill-rule="evenodd" clip-rule="evenodd" d="M32.7976 1.48517C26.1423 1.86192 23.5239 2.53427 20.2975 4.33173C13.5854 8.95015 11.3865 15.0992 11.3865 19.6784C11.3865 24.2577 14.4536 31.8275 20.2975 34.9013C22.7515 36.2138 26.1247 36.9121 27.7588 37.2504C28.4164 37.3865 28.7923 37.4643 28.7134 37.5004C28.4384 37.6261 29.8713 45.072 32.5501 48.6391L30.0868 49.4827C28.4445 49.8221 26.7432 50.0005 25.0003 50.0005C11.193 50.0005 0 38.8075 0 25.0003C0 11.193 11.193 0 25.0003 0C27.2888 0 29.5055 0.307501 31.6113 0.883438L32.7976 1.48517Z" fill="url(#paint1_linear_13_8)"/>
<path fill-rule="evenodd" clip-rule="evenodd" d="M29.2964 11.313C29.1501 12.3431 29.0444 13.4517 28.96 14.6915C36.2365 20.4172 39.8099 26.0868 45.5929 38.6978C45.6413 38.6676 45.668 38.6394 45.668 38.6142C46.4108 32.2925 46.1478 28.4971 42.6977 22.1537C38.7516 16.2333 35.7558 13.8091 29.3312 11.2625L29.2964 11.313Z" fill="url(#paint2_linear_13_8)"/>
<path fill-rule="evenodd" clip-rule="evenodd" d="M30.6934 6.06442C36.82 8.18476 41.0895 11.7575 43.8123 15.9655C46.5351 20.1735 47.649 23.7626 47.649 26.7329C47.649 29.7033 47.5907 34.6156 45.6688 38.738L45.8188 38.717L46.421 38.1388C48.6924 34.3485 49.9993 29.9064 49.9993 25.157C49.9993 14.3158 43.1898 5.07567 33.6416 1.53446L32.9204 1.48517C32.2455 2.65162 31.6877 3.70593 31.2245 4.71009L30.6934 6.06442Z" fill="url(#paint3_linear_13_8)"/>
<circle cx="26.2375" cy="7.67333" r="2.47527" fill="#B5B5B5" fill-opacity="0.22"/>
<path fill-rule="evenodd" clip-rule="evenodd" d="M18.1927 5.81689C14.7003 6.43722 10.7669 8.53969 7.42529 11.2625C4.08367 13.9853 2.15175 17.4572 0.247001 21.5349L0.241211 21.5095C1.93934 9.35474 12.3771 0 24.9997 0C27.2881 0 29.5047 0.307462 31.6104 0.883329L32.7969 1.48517C26.1415 1.86192 23.5231 2.53427 20.2967 4.33173C19.6254 4.79367 18.9992 5.27091 18.4159 5.76036L18.1927 5.81689Z" fill="url(#paint4_linear_13_8)"/>
<path fill-rule="evenodd" clip-rule="evenodd" d="M12.7143 13.3247C11.7723 15.5662 11.3863 17.7601 11.3863 19.6785C11.3863 24.2577 14.4535 31.8275 20.2973 34.9014C22.7513 36.2138 26.1246 36.9121 27.7587 37.2504L27.7588 37.2504C28.4163 37.3865 28.7922 37.4644 28.7133 37.5004C28.4383 37.6262 29.8712 45.072 32.5499 48.6392L30.0867 49.4827C28.4443 49.8222 26.743 50.0006 25.0001 50.0006C12.5141 50.0006 2.1659 40.8472 0.299805 28.8846C1.27808 25.1723 2.28793 23.2316 4.57934 20.0497C7.52686 16.5013 9.26856 15.0148 12.624 13.2427L12.7143 13.3247Z" fill="url(#paint5_linear_13_8)"/>
<defs>
<linearGradient id="paint0_linear_13_8" x1="24.1844" y1="12.7719" x2="52.9889" y2="33.4237" gradientUnits="userSpaceOnUse">
<stop/>
<stop offset="1" stop-color="white" stop-opacity="0"/>
</linearGradient>
<linearGradient id="paint1_linear_13_8" x1="10.6438" y1="11.2625" x2="0.000115037" y2="29.0845" gradientUnits="userSpaceOnUse">
<stop stop-color="white" stop-opacity="0"/>
<stop offset="1"/>
</linearGradient>
<linearGradient id="paint2_linear_13_8" x1="32.7966" y1="4.33169" x2="48.3908" y2="41.337" gradientUnits="userSpaceOnUse">
<stop/>
<stop offset="1" stop-color="white" stop-opacity="0"/>
</linearGradient>
<linearGradient id="paint3_linear_13_8" x1="33.5398" y1="0.86635" x2="56.0642" y2="15.2217" gradientUnits="userSpaceOnUse">
<stop/>
<stop offset="1" stop-color="white" stop-opacity="0"/>
</linearGradient>
<linearGradient id="paint4_linear_13_8" x1="27.9701" y1="-3.46538" x2="-5.4461" y2="25.0003" gradientUnits="userSpaceOnUse">
<stop stop-color="white" stop-opacity="0"/>
<stop offset="1"/>
</linearGradient>
<linearGradient id="paint5_linear_13_8" x1="25.5437" y1="51.3592" x2="2.22769" y2="12.6239" gradientUnits="userSpaceOnUse">
<stop/>
<stop offset="0.973958" stop-color="white" stop-opacity="0"/>
</linearGradient>
</defs>
</svg>
