<svg width="36" height="35" viewBox="0 0 36 35" fill="none" xmlns="http://www.w3.org/2000/svg">
<path d="M18 34.7499C27.9247 34.7499 36 26.6747 36 16.7499C36 9.21245 31.338 2.7527 24.75 0.0751953V5.07694C26.7996 6.26026 28.5021 7.96158 29.6868 10.0103C30.8715 12.0591 31.4968 14.3833 31.5 16.7499C31.5 24.1952 25.4452 30.2499 18 30.2499C10.5548 30.2499 4.5 24.1952 4.5 16.7499C4.50299 14.3833 5.1282 12.059 6.31294 10.0102C7.49767 7.96137 9.20028 6.26009 11.25 5.07694V0.0751953C4.662 2.7527 0 9.21245 0 16.7499C0 26.6747 8.07525 34.7499 18 34.7499Z" fill="white"/>
<path d="M16 0H20V17H16V0Z" fill="white"/>
</svg>
